<svg xmlns="http://www.w3.org/2000/svg" xmlns:xlink="http://www.w3.org/1999/xlink" width="59.149" height="64.726" viewBox="0 0 59.149 64.726">
  <defs>
    <clipPath id="clip-path">
      <rect id="Rectángulo_188" data-name="Rectángulo 188" width="47.149" height="64.726" fill="#fa0000"/>
    </clipPath>
  </defs>
  <g id="Grupo_122" data-name="Grupo 122" transform="translate(-368 -378)">
    <g id="Grupo_107" data-name="Grupo 107" transform="translate(380 378)">
      <g id="Grupo_107-2" data-name="Grupo 107" clip-path="url(#clip-path)">
        <path id="Trazado_242" data-name="Trazado 242" d="M26.765,0H4.2A4.209,4.209,0,0,0,0,4.2V60.522a4.209,4.209,0,0,0,4.2,4.2H42.944a4.209,4.209,0,0,0,4.2-4.2V19.728Zm.928,5.24L41.676,18.772H28.059a.365.365,0,0,1-.365-.365ZM44.029,60.522a1.087,1.087,0,0,1-1.085,1.085H4.2a1.087,1.087,0,0,1-1.085-1.085V4.2A1.087,1.087,0,0,1,4.2,3.119h20.37V18.407a3.488,3.488,0,0,0,3.484,3.484H44.029Z" fill="#fa0000" fill-rule="evenodd"/>
        <path id="Trazado_243" data-name="Trazado 243" d="M124.321,187.848h3.049v4.616h2.99v-4.616h3.024v-2.441h-9.063Z" transform="translate(-95.861 -139.543)" fill="#fa0000" fill-rule="evenodd"/>
        <path id="Trazado_244" data-name="Trazado 244" d="M90,185.495l-3.48,7.034s3.661.02,3.7,0l1.06-2.617a4.384,4.384,0,0,1,2.741,2.617h3.7l-3.361-7.034Zm1.395,4.1.89-2.216.679,2.216Z" transform="translate(-68.038 -139.609)" fill="#fa0000" fill-rule="evenodd"/>
        <path id="Trazado_245" data-name="Trazado 245" d="M59.134,187.714c-1.02-.239-1.975-.387-2.155-.5-.28-.159-.2-.408.18-.527a8.212,8.212,0,0,1,3.6.437.86.86,0,0,1,.326.159V185.1a2.971,2.971,0,0,0-.506-.109,16.017,16.017,0,0,0-1.681-.189c-3.161-.189-5.085.5-5.666,1.562-.72,1.313-.036,2.229,2.465,2.776a19.747,19.747,0,0,1,2.24.457c.28.219.04.477-.52.527a10.012,10.012,0,0,1-3.623-.606,3.111,3.111,0,0,0-.719-.209v2.279a4.106,4.106,0,0,1,.8.2c4.021.716,6.962.02,7.7-1.174.9-1.393-.02-2.338-2.441-2.9" transform="translate(-43.333 -139.073)" fill="#fa0000" fill-rule="evenodd"/>
        <path id="Trazado_246" data-name="Trazado 246" d="M114.932,149.492a3.738,3.738,0,1,0-3.738,3.738,3.737,3.737,0,0,0,3.738-3.738" transform="translate(-83.448 -110.357)" fill="#fa0000" fill-rule="evenodd"/>
        <path id="Trazado_247" data-name="Trazado 247" d="M80.041,153.229a3.738,3.738,0,1,0-3.738-3.738,3.738,3.738,0,0,0,3.738,3.738" transform="translate(-60.516 -110.357)" fill="#fa0000" fill-rule="evenodd"/>
        <path id="Trazado_248" data-name="Trazado 248" d="M107.457,118.337a3.738,3.738,0,1,0,3.738-3.738,3.738,3.738,0,0,0-3.738,3.738" transform="translate(-83.448 -87.424)" fill="#fa0000" fill-rule="evenodd"/>
        <path id="Trazado_249" data-name="Trazado 249" d="M80.041,122.074a3.738,3.738,0,1,0-3.738-3.738,3.738,3.738,0,0,0,3.738,3.738" transform="translate(-60.516 -87.424)" fill="#fa0000" fill-rule="evenodd"/>
      </g>
    </g>
    <g id="Grupo_108" data-name="Grupo 108" transform="translate(-4 -23)">
      <circle id="Elipse_17" data-name="Elipse 17" cx="12" cy="12" r="12" transform="translate(372 412)" fill="#fa0000"/>
      <g id="Grupo_75" data-name="Grupo 75" transform="translate(378 416.5)">
        <path id="Polígono_5" data-name="Polígono 5" d="M6,0l6,9H0Z" transform="translate(0 0.5)" fill="#fff"/>
        <path id="Trazado_250" data-name="Trazado 250" d="M-.834,0H3V6H-.834Z" transform="translate(5 7.5)" fill="#fff"/>
      </g>
    </g>
  </g>
</svg>
