<svg xmlns="http://www.w3.org/2000/svg" xmlns:xlink="http://www.w3.org/1999/xlink" width="216.714" height="64.869" viewBox="0 0 216.714 64.869">
  <defs>
    <clipPath id="clip-path">
      <rect id="Rectángulo_115" data-name="Rectángulo 115" width="216.714" height="64.869" fill="none"/>
    </clipPath>
  </defs>
  <g id="Grupo_45" data-name="Grupo 45" transform="translate(0)">
    <g id="Grupo_47" data-name="Grupo 47" transform="translate(0)" clip-path="url(#clip-path)">
      <path id="Trazado_164" data-name="Trazado 164" d="M350.941,32.648A4.208,4.208,0,0,0,354.1,30.7c1-1.3,1.24-3.734.7-4.671l-3.675.018a6.442,6.442,0,0,1,.571,2.2,4.517,4.517,0,0,1-1.5,3.128.592.592,0,0,0-.259.538q0,.732,1,.732" transform="translate(-209.314 -15.57)" fill="#000104"/>
      <path id="Trazado_165" data-name="Trazado 165" d="M496.54,102.451a3.07,3.07,0,0,0-2.994,2.734,2.443,2.443,0,0,0,2.474,2.733,3.069,3.069,0,0,0,2.992-2.733,2.444,2.444,0,0,0-2.473-2.734" transform="translate(-295.205 -61.281)" fill="#000104"/>
      <path id="Trazado_166" data-name="Trazado 166" d="M439.389,39c-3.941,0-6.565,4.009-6.565,4.009l1.335-3.44H427.6l-3.057,8.593a14.715,14.715,0,0,1-7.124,4.249l8.811-22.867h-2.929c-.006,0-.009,0-.016,0H416.5c-11.508,0-20.126,7.108-20.126,14.394a5.815,5.815,0,0,0,2.67,4.956c1.013,0,2.705,0,4.211,0a7.773,7.773,0,0,1-1.018-3.781c0-6.85,5.31-12.92,13.919-12.92h1.758s-8.092,21.1-8.163,21.28c-15.047,1.088-19.6,5.1-19.6,9.564,0,4.776,5.992,6.481,8.862,6.481,9.709,0,14.77-8.1,17.356-14.211a19.556,19.556,0,0,0,6.522-2.49l-4.079,11.465h6.553l5.944-16.665s1.76-3.247,4.475-3.247a3.74,3.74,0,0,1,2.565.651l4.13-4.922A3.94,3.94,0,0,0,439.389,39m-39.82,27.506a3.358,3.358,0,0,1-3.39-3.581c0-4.212,5.256-6.152,12.543-6.813-2.322,5.3-4.824,10.512-9.154,10.394" transform="translate(-233.368 -17.67)" fill="#000104"/>
      <path id="Trazado_167" data-name="Trazado 167" d="M202.253,38.659c-3.941,0-6.565,4.009-6.565,4.009l1.335-3.44h-6.554l-3.544,9.96c-.162.3-.319.593-.466.861-3.713,6.848-7.532,10.646-8.363,10.646-.4,0-.433-.42-.131-1.213s2.007-5.715,5.376-14.554h-6.27c-1.089,2.793-3.4,9.341-4.351,11.869-1.677,2.074-4.177,3.832-5.219,3.832-1.162,0-1.162-1.161-1.162-1.532,0-3.612,4.152-16.827,12.085-16.827a12.987,12.987,0,0,1,4.15.628l1.19-3.053a10.894,10.894,0,0,0-5.691-1.284c-9.089,0-14.772,7.507-16.964,13.859-.655,1.3-1.606,3.117-2.553,4.668-2.966,4.858-8.291,7.582-11.8,7.522-4.138-.068-6.185-2.386-6.185-8.59,0-6.632,7.4-24,16.134-24a3.289,3.289,0,0,1,3.335,3.424,5.02,5.02,0,0,1-1.9,3.869h6.12a5.026,5.026,0,0,0,2.285-4.345c0-2.487-2.426-6-9.305-6-15.663,0-24.458,17.411-24.468,27.812-.008,10.163,7.412,11.587,12.322,11.587,5.18,0,10.854-3.195,13.837-7.231.435-.627.846-1.267,1.232-1.9.534,4.607,3.589,4.7,5.008,4.7,2.054,0,4.765-1.359,6.772-3.046.231,2.123,1.861,3.046,4.246,3.046,2.342,0,4.774-1.815,7.046-4.383l-1.557,4.377h6.553l5.944-16.665s1.76-3.246,4.475-3.246a3.742,3.742,0,0,1,2.565.65l4.13-4.922a3.941,3.941,0,0,0-3.093-1.094" transform="translate(-79.418 -17.329)" fill="#000104"/>
      <path id="Trazado_168" data-name="Trazado 168" d="M532.249,41.4a.765.765,0,0,0-.474-.632v-.032a.663.663,0,0,0,.537-.6.719.719,0,0,0-.253-.569,1.615,1.615,0,0,0-.9-.189,5.249,5.249,0,0,0-1,.079v2.592h.6V41h.284c.331,0,.49.126.537.411a2.211,2.211,0,0,0,.205.632h.648a1.973,1.973,0,0,1-.19-.648m-1.185-.822h-.284v-.743a1.424,1.424,0,0,1,.332-.032c.379,0,.553.158.553.4,0,.269-.268.379-.6.379" transform="translate(-317.115 -23.551)" fill="#000104"/>
      <path id="Trazado_169" data-name="Trazado 169" d="M528.7,36.188a2.608,2.608,0,1,0,2.655,2.592,2.621,2.621,0,0,0-2.655-2.592m.016,4.662A2.072,2.072,0,1,1,530.7,38.8a1.984,1.984,0,0,1-1.975,2.054" transform="translate(-314.645 -21.646)" fill="#000104"/>
      <path id="Trazado_170" data-name="Trazado 170" d="M322.874,43.642a10.062,10.062,0,0,0-1.981,2.235c-.676.976-1.636,2.387-2.566,3.713-3.739,5.334-7.75,10.806-9.212,12.067-1.99,1.714-3.386,2.387-3.952,2.387-.4,0-.432-.42-.131-1.213s7.409-19.43,10.778-28.27h-6.269c-1.011,2.588-7.408,19.411-9.385,24.608a22.948,22.948,0,0,0-1.166,4.213c-.151,2.739,1.578,3.91,4.265,3.91,2.081,0,4.692-1.4,6.7-3.091.2-.164.4-.348.606-.542.489-.524.955-1.029,1.407-1.523.376,3.056,3.444,5.092,7.164,5.092,4.878,0,9.411-2.938,9.411-8.392,0-5.319-3.175-7.96-3.175-11.245a2.076,2.076,0,0,1,1.716-1.953,3.649,3.649,0,0,1,2.684,1.187l2.99-3.46s-2.522-2.225-6.988-1.108a6.876,6.876,0,0,0-2.9,1.386m-4.847,20.708a3.537,3.537,0,0,1-3.527-3.684,5.355,5.355,0,0,1,.773-2.3c.449-.549.864-1.079,1.239-1.589,1.414-1.923,2.8-4.084,3.965-5.72.538,2.915,2.077,4.169,2.077,7.93,0,2.247-1.642,5.36-4.526,5.36" transform="translate(-178.835 -20.672)" fill="#000104"/>
      <path id="Trazado_171" data-name="Trazado 171" d="M52.722,55.675a.211.211,0,0,0,.158.077.192.192,0,0,0,.091-.023,5.759,5.759,0,0,1,3.433-.653.486.486,0,0,0,.518-.379.533.533,0,0,0-.265-.645A3.4,3.4,0,0,0,52.7,55.365a.252.252,0,0,0,.02.311" transform="translate(-31.497 -32.2)" fill="#000104"/>
      <path id="Trazado_172" data-name="Trazado 172" d="M86.385,64.739a.21.21,0,0,1-.174-.025.191.191,0,0,1-.063-.07,5.76,5.76,0,0,0-2.48-2.461.486.486,0,0,1-.217-.6.533.533,0,0,1,.58-.387,3.4,3.4,0,0,1,2.545,3.3.251.251,0,0,1-.19.246" transform="translate(-49.898 -36.598)" fill="#000104"/>
      <path id="Trazado_173" data-name="Trazado 173" d="M60.288,80.853c.839,1.052,1.216,1.255,1.822,1.441a2.6,2.6,0,0,0,.768.127,5.08,5.08,0,0,0,1.549-.3c.408-.129.635-.334.608-.549-.023-.174-.218-.3-.5-.31-.338-.018-.538-.027-.678-.033-.318-.015-.318-.015-.916-.066l-.062-.006a1.992,1.992,0,0,1-.4-.076,2.02,2.02,0,0,1-.376-.161l-.044-.025c-.532-.3-.532-.3-.8-.462-.119-.073-.291-.178-.583-.354-.24-.145-.471-.154-.587-.021-.142.163-.068.46.2.794" transform="translate(-35.9 -47.83)" fill="#000104"/>
      <path id="Trazado_174" data-name="Trazado 174" d="M54,64.009a2.817,2.817,0,0,0-2.537.586.892.892,0,0,0-.274,1,.585.585,0,0,0,.577.23,5.092,5.092,0,0,1,1.761.159,2.943,2.943,0,0,1,1.2.693,1.153,1.153,0,0,0,.532.222.78.78,0,0,0,.5-.178,1,1,0,0,0,.311-1.14A2.813,2.813,0,0,0,54,64.009" transform="translate(-30.583 -38.24)" fill="#000104"/>
      <path id="Trazado_175" data-name="Trazado 175" d="M78.589,71.346a2.816,2.816,0,0,1,1.776,1.9.892.892,0,0,1-.331.981.584.584,0,0,1-.607-.132,5.089,5.089,0,0,0-1.548-.852,2.948,2.948,0,0,0-1.384-.1,1.149,1.149,0,0,1-.565-.113.78.78,0,0,1-.315-.427A1,1,0,0,1,76,71.49a2.813,2.813,0,0,1,2.594-.144" transform="translate(-45.202 -42.529)" fill="#000104"/>
      <path id="Trazado_176" data-name="Trazado 176" d="M60.033,85.349c-.236-.4-.45-.98-.782-.848-.208.083-.145.291-.188.525-.033.181-.106.348-.469.558-.275.155-.528.285-.766.392a9.7,9.7,0,0,1-2,.68,8.4,8.4,0,0,1-7.639-2.336,9.721,9.721,0,0,1-1.28-1.683c-.138-.223-.274-.472-.416-.754a.762.762,0,0,1-.077-.725c.1-.219.264-.356.137-.541-.2-.294-.7.069-1.122.266-.619.293-.909.325-.821.708s.542.035.668.447h0a11.035,11.035,0,0,0,3.943,5.925,6.763,6.763,0,0,0,1.759.848l.01,0,.01,0a6.778,6.778,0,0,0,1.932.281,11.039,11.039,0,0,0,6.582-2.708h0c.336-.271.524.264.8,0s.066-.458-.284-1.046" transform="translate(-26.672 -48.155)" fill="#000104"/>
      <path id="Trazado_177" data-name="Trazado 177" d="M93.4,2.322,93.8,24.468l2.158.661L95.684,9.537a10.376,10.376,0,0,0-.858-3.943L93.338,1.948a1.21,1.21,0,0,1,.066.374" transform="translate(-55.83 -1.165)" fill="#ce0024"/>
      <path id="Trazado_178" data-name="Trazado 178" d="M93.222,1.668l-.028-.07,0,0c.01.021.02.043.03.065" transform="translate(-55.742 -0.956)" fill="#ce0024"/>
      <path id="Trazado_179" data-name="Trazado 179" d="M.346,34.389a1.172,1.172,0,0,1-.172-.315l.921,2.65A10.38,10.38,0,0,0,2.7,39.814L12.85,53.278l.837-1.2Z" transform="translate(-0.104 -20.381)" fill="#ce0024"/>
      <path id="Trazado_180" data-name="Trazado 180" d="M54.086,33.791a33.415,33.415,0,0,1,1.649-5.043L37.968,23.3,37.574,1.157A1.176,1.176,0,0,0,35.435.5l-12.71,18.14c-2.734-.85-15.086-4.609-21.2-6.469a1.178,1.178,0,0,0-1.28,1.834L13.582,31.7.87,49.868a1.176,1.176,0,0,0,1.347,1.786L23.175,44.43l11.073,14.7,2.262,3a1.176,1.176,0,0,0,2.115-.728l-.38-22.171Zm-27.879-.7a2.047,2.047,0,0,0,.376.161,2.021,2.021,0,0,0,.4.076l.062.005c.6.051.6.051.915.066.139.006.34.015.678.033.28.015.475.137.5.311.027.215-.2.42-.608.549a5.087,5.087,0,0,1-1.549.3,2.607,2.607,0,0,1-.768-.127c-.606-.186-.983-.389-1.822-1.44-.267-.334-.341-.631-.2-.794.117-.133.347-.125.587.02l.583.354c.27.165.27.165.8.462Zm-5-9.924a3.4,3.4,0,0,1,3.955-1.314.533.533,0,0,1,.265.645.487.487,0,0,1-.518.379,5.759,5.759,0,0,0-3.433.653.188.188,0,0,1-.091.023.209.209,0,0,1-.158-.076.251.251,0,0,1-.02-.311m-.325,3.19a2.815,2.815,0,0,1,2.537-.586,2.812,2.812,0,0,1,2.07,1.57,1,1,0,0,1-.31,1.14.78.78,0,0,1-.5.178,1.157,1.157,0,0,1-.532-.221,2.943,2.943,0,0,0-1.2-.693,5.1,5.1,0,0,0-1.761-.16.583.583,0,0,1-.577-.23.891.891,0,0,1,.274-1M33.645,38.24c-.28.261-.469-.274-.8,0h0a11.039,11.039,0,0,1-6.582,2.708,6.778,6.778,0,0,1-1.933-.281l-.01,0-.01,0a6.763,6.763,0,0,1-1.759-.848A11.034,11.034,0,0,1,18.6,33.884h0c-.126-.412-.582-.074-.668-.447s.2-.416.821-.708c.417-.2.921-.56,1.122-.266.126.185-.042.322-.137.541a.763.763,0,0,0,.077.725c.141.282.278.531.416.754a9.723,9.723,0,0,0,1.281,1.683A8.394,8.394,0,0,0,29.152,38.5a9.734,9.734,0,0,0,2-.679c.238-.108.491-.238.766-.393.362-.21.436-.377.469-.558.043-.235-.02-.442.189-.525.331-.132.546.451.781.848.35.589.572.778.285,1.046M34.831,31.7a.584.584,0,0,1-.607-.132,5.089,5.089,0,0,0-1.548-.852,2.948,2.948,0,0,0-1.384-.1,1.151,1.151,0,0,1-.565-.113.782.782,0,0,1-.315-.427,1,1,0,0,1,.38-1.119,3.067,3.067,0,0,1,4.37,1.76.892.892,0,0,1-.331.981m1.656-3.561a.21.21,0,0,1-.174-.025.191.191,0,0,1-.063-.07,5.762,5.762,0,0,0-2.48-2.461.486.486,0,0,1-.217-.6.532.532,0,0,1,.58-.387,3.4,3.4,0,0,1,2.545,3.3.251.251,0,0,1-.19.246" transform="translate(0 0)" fill="#ffc11d"/>
      <path id="Trazado_181" data-name="Trazado 181" d="M55.732,86.592c.118-.814.283-1.652.487-2.5L40.379,89.537l.38,22.171a1.176,1.176,0,0,1-2.115.728L25.309,94.727,4.349,101.951a1.161,1.161,0,0,1-.637.039l-.147-.04,2.694,1.005a2.758,2.758,0,0,0,1.872.027l17.2-5.921,12.82,17.01a2.639,2.639,0,0,0,4.772-1.651l-.364-21.291Z" transform="translate(-2.132 -50.297)" fill="#ce0024"/>
    </g>
  </g>
</svg>
