<svg xmlns="http://www.w3.org/2000/svg" width="204.336" height="28.584" viewBox="0 0 204.336 28.584">
  <path id="Trazado_251" data-name="Trazado 251" d="M-91.728-22.536h5.472v-4.608h-16.236v4.608h5.472V0h5.292Zm12.708-4.608h-5.292V0h5.292ZM-75.168,0h5.292V-18.432h.072L-55.512.54H-51.7V-27.144h-5.292V-8.892h-.072L-71.352-27.864h-3.816Zm36.144-22.536h5.472v-4.608H-49.788v4.608h5.472V0h5.292Zm32.976,8.928c0-8.064-5.328-14.256-13.428-14.256S-32.9-21.672-32.9-13.608C-32.9-5.616-27.756.72-19.476.72S-6.048-5.616-6.048-13.608Zm-5.472-.216c0,4.176-2.088,9.324-7.956,9.324s-7.956-5.148-7.956-9.324c0-4.392,2.952-8.82,7.956-8.82S-11.52-18.216-11.52-13.824ZM14.688-26.28A12.628,12.628,0,0,0,8.64-27.864c-7.956,0-13.392,6.8-13.392,14.508C-4.752-5.868.9.72,8.532.72A14.247,14.247,0,0,0,14.688-.9V-7.2A8.28,8.28,0,0,1,8.676-4.32C3.744-4.32.72-8.892.72-13.464c0-4.68,2.916-9.36,7.992-9.36a7.832,7.832,0,0,1,5.976,2.88Zm8.784-.864H18.18V0h5.292ZM27.324,0h5.292V-18.432h.072L46.98.54H50.8V-27.144H45.5V-8.892h-.072L31.14-27.864H27.324ZM72.792-26.28a12.628,12.628,0,0,0-6.048-1.584c-7.956,0-13.392,6.8-13.392,14.508C53.352-5.868,59,.72,66.636.72A14.247,14.247,0,0,0,72.792-.9V-7.2A8.28,8.28,0,0,1,66.78-4.32c-4.932,0-7.956-4.572-7.956-9.144,0-4.68,2.916-9.36,7.992-9.36a7.832,7.832,0,0,1,5.976,2.88Zm29.052,12.672c0-8.064-5.328-14.256-13.428-14.256S74.988-21.672,74.988-13.608C74.988-5.616,80.136.72,88.416.72S101.844-5.616,101.844-13.608Zm-5.472-.216c0,4.176-2.088,9.324-7.956,9.324S80.46-9.648,80.46-13.824c0-4.392,2.952-8.82,7.956-8.82S96.372-18.216,96.372-13.824Z" transform="translate(102.492 27.864)" fill="#fc8207"/>
</svg>
