<svg id="Grupo_44" data-name="Grupo 44" xmlns="http://www.w3.org/2000/svg" xmlns:xlink="http://www.w3.org/1999/xlink" width="262" height="51.859" viewBox="0 0 262 51.859">
  <defs>
    <clipPath id="clip-path">
      <rect id="Rectángulo_112" data-name="Rectángulo 112" width="262" height="51.859" fill="none"/>
    </clipPath>
  </defs>
  <g id="Grupo_44-2" data-name="Grupo 44" clip-path="url(#clip-path)">
    <path id="Trazado_103" data-name="Trazado 103" d="M312.987,58.8h9.508c6.176,0,10.426,1.711,9.767,7.663s-3.477,11.954-11.391,11.954H309.749l.388-1.767.96-.166,3.748-15.749-2.247-.2Zm4.989,17.486a10.35,10.35,0,0,0,1.948.14c4.769,0,6-11.127,5.839-12.863-.219-2.383-1.353-2.776-2.544-2.776H321.65Z" transform="translate(-220.775 -41.907)" fill="#fff"/>
    <path id="Trazado_104" data-name="Trazado 104" d="M318.079,76.743H306.957a1.127,1.127,0,0,1-1.1-1.368l.388-1.766a1.121,1.121,0,0,1,.907-.865l.229-.04,3.275-13.762-.949-.084a1.126,1.126,0,0,1-1-1.368l.389-1.738a1.126,1.126,0,0,1,1.1-.879H319.7c4.545,0,7.591.935,9.315,2.861a7.473,7.473,0,0,1,1.571,6.054c-.933,8.355-5.376,12.954-12.51,12.954m-8.988-2.252h5.584a1.128,1.128,0,0,1-.586-1.264l3.672-15.5a1.133,1.133,0,0,1,.373-.6h-5.3a1.1,1.1,0,0,1,.131.153,1.12,1.12,0,0,1,.183.919L309.4,73.947a1.139,1.139,0,0,1-.309.545m13.126-17.248c1.087.547,1.716,1.69,1.875,3.416.144,1.6-.634,9.23-3.609,12.487a4.989,4.989,0,0,1-1.876,1.334c7.058-.274,9.2-6.064,9.744-10.942a5.277,5.277,0,0,0-1.01-4.3c-.971-1.083-2.659-1.744-5.124-1.994M316.577,72.5c.164,0,.348.007.556.007a2.278,2.278,0,0,0,1.688-.877c2.419-2.647,3.133-9.616,3.028-10.762-.161-1.751-.773-1.751-1.422-1.751h-.68Z" transform="translate(-217.983 -39.112)" fill="#fff"/>
    <path id="Trazado_105" data-name="Trazado 105" d="M613.307,77.164a4.345,4.345,0,0,1-1.7.479c-1.58,0-1.58-.57-2.314-1.609,3.934-2.186,6.363-6.634,6.363-11.755,0-4.641-3.609-7.189-9.636-7.189-6.712,0-12.265,6.177-12.442,12.309-.145,5.2,2.411,8.229,9.722,8.149a11.666,11.666,0,0,0,1.664-.112c.9,2.186,1.611,3.121,4.573,3.121a6.82,6.82,0,0,0,3.274-.822l.519-2.259Zm-7.318-4.3a6.44,6.44,0,0,0-3.263-1.017l-.453,1.958a2.16,2.16,0,0,1,1.8,1.416,1.862,1.862,0,0,1-1.065.333,2.406,2.406,0,0,1-2.722-2.326c-.184-2.128,1.8-14.151,5.7-14.151A2.392,2.392,0,0,1,608.7,61.4a30.707,30.707,0,0,1-2.71,11.463" transform="translate(-423.075 -40.691)" fill="#fff"/>
    <path id="Trazado_106" data-name="Trazado 106" d="M606.748,78.888c-3.07,0-4.285-.983-5.271-3.041-.345.021-.674.029-.956.03l-.295,0c-3.919,0-6.677-.876-8.43-2.681-1.516-1.558-2.213-3.727-2.131-6.626.2-7.139,6.544-13.4,13.567-13.4,6.739,0,10.761,3.109,10.761,8.315a14.586,14.586,0,0,1-5.9,12.092c.149.148.3.148.728.148a3.328,3.328,0,0,0,1.18-.358,1.2,1.2,0,0,1,1.057.053,1.143,1.143,0,0,1,.581.851l.028.313a1.194,1.194,0,0,1-.024.349l-.518,2.26a1.121,1.121,0,0,1-.556.732,7.892,7.892,0,0,1-3.818.963m-4.571-5.372a1.119,1.119,0,0,1,1.037.694c.761,1.843,1.12,2.426,3.535,2.426a5.865,5.865,0,0,0,2.3-.468l.046-.206c-.089.008-.18.011-.274.011a2.884,2.884,0,0,1-2.921-1.607c-.09-.144-.19-.3-.311-.477a1.125,1.125,0,0,1,.372-1.634c3.569-1.983,5.785-6.11,5.785-10.771,0-4.37-3.661-5.661-6.724-5.976a3.4,3.4,0,0,1,2.009,3A31.241,31.241,0,0,1,604.2,70.59a1.123,1.123,0,0,1-1.638.408,4.611,4.611,0,0,0-1.649-.678,3.59,3.59,0,0,1,1.377,1.606,1.126,1.126,0,0,1-.385,1.438,3.248,3.248,0,0,1-.383.221c.165-.015.326-.032.483-.057a1.35,1.35,0,0,1,.176-.013m-.47-17.977a12.146,12.146,0,0,0-9.792,11.1c-.064,2.257.427,3.89,1.495,4.993a7.824,7.824,0,0,0,5,1.916,3.418,3.418,0,0,1-2.043-3.01c-.151-1.75,1.144-10.782,4.137-14.043a4.541,4.541,0,0,1,1.2-.956m1.485,1.871a1.523,1.523,0,0,0-1.026.607c-2.166,2.359-3.452,9.373-3.558,11.768l.226-.986A1.125,1.125,0,0,1,600,67.931a8.326,8.326,0,0,1,2.676.589,31.161,31.161,0,0,0,2.108-9.812c-.06-.675-.293-1.3-1.593-1.3" transform="translate(-420.282 -37.896)" fill="#fff"/>
    <path id="Trazado_107" data-name="Trazado 107" d="M395.432,93.28a1.133,1.133,0,0,1-1.155-1.4,7.994,7.994,0,0,1-5.325,1.775c-2.472,0-4.391-1.225-3.776-3.947,1.355-5.947,10.14-3.235,10.614-5.7.327-1.676-.08-1.989-1.26-1.989-1.111,0-1.884.8-2.3,2.192h-5c.631-2.772,2.97-4.4,8.146-4.4,6.194,0,6.045,2.3,5.337,5.42l-1.011,4.6c-.171.75-.3,1.531,1.245,1.67l-.437,1.773Zm-.41-6.142c-1.9.991-4.053.51-4.455,2.561-.155.782.364,1.324,1.388,1.324,1.82,0,2.758-1.718,3.066-3.884" transform="translate(-274.454 -56.889)" fill="#fff"/>
    <path id="Trazado_108" data-name="Trazado 108" d="M386.159,91.987a5.221,5.221,0,0,1-4.207-1.675,4.127,4.127,0,0,1-.668-3.646,5.733,5.733,0,0,1,3.35-4.122h-.2a1.123,1.123,0,0,1-1.1-1.372c.807-3.549,3.832-5.276,9.244-5.276,3.167,0,5.026.561,6.03,1.82,1.1,1.381.8,3.215.4,4.977l-1.009,4.593c-.012.055-.038.165-.055.264a2.082,2.082,0,0,0,.3.043,1.128,1.128,0,0,1,.991,1.392l-.436,1.773a1.128,1.128,0,0,1-1.094.856h-5.075a2.212,2.212,0,0,1-1.774-.755l0,0a9.213,9.213,0,0,1-4.7,1.135M391.6,83.4c-.593.126-1.246.2-1.909.277-3.255.377-5.6.851-6.205,3.486a1.993,1.993,0,0,0,.229,1.738,3.133,3.133,0,0,0,2.449.832,7.412,7.412,0,0,0,2.623-.4,2.462,2.462,0,0,1-1.694-.834,2.148,2.148,0,0,1-.419-1.814c.4-2.054,2.1-2.47,3.336-2.775a8.123,8.123,0,0,0,1.59-.508m1,5.958h3.936a1.955,1.955,0,0,1-.482-.467,2.492,2.492,0,0,1-.24-2.1l1.009-4.592c.341-1.5.464-2.539.034-3.08-.354-.442-1.383-.971-4.271-.971h-.122a2.086,2.086,0,0,1,1.318.7,3.069,3.069,0,0,1,.327,2.591,2.329,2.329,0,0,1-1.805,1.786,1.127,1.127,0,0,1,1.048,1.282,6.966,6.966,0,0,1-1.4,3.558,1.01,1.01,0,0,1,.122.063,1.126,1.126,0,0,1,.529,1.155.474.474,0,0,0,0,.082m-3.707-2.285a1.278,1.278,0,0,0,.274.025,1.6,1.6,0,0,0,1.4-1.005.052.052,0,0,0-.018,0c-1.3.319-1.542.453-1.655.977m2.849-6.723c-.174,0-.658,0-1.059.929a3.081,3.081,0,0,0,1.252-.357,3.934,3.934,0,0,0,.053-.563c-.063,0-.143-.009-.246-.009m-5.626-.06h2.543a3.454,3.454,0,0,1,2.214-2.073c-2.783.252-4.1,1.122-4.757,2.073" transform="translate(-271.661 -54.095)" fill="#fff"/>
    <path id="Trazado_109" data-name="Trazado 109" d="M449.822,65.789c3.017-.012,2.705-2.053,2.705-2.053s.326-2.024-2.705-2.024c-2.986,0-2.7,2.024-2.7,2.024s-.323,2.065,2.7,2.053m-4.356,14.588c-1.983,0-1.469-1.742-1.469-1.742l2.163-9.506-1.178-.072.386-1.771h6.4s-2.253,9.942-2.444,10.751,1.106.723,1.106.723l-.369,1.616Z" transform="translate(-316.418 -43.986)" fill="#fff"/>
    <path id="Trazado_110" data-name="Trazado 110" d="M447.277,78.708h-4.6a2.572,2.572,0,0,1-2.2-.95,2.694,2.694,0,0,1-.348-2.237l1.853-8.153a1.123,1.123,0,0,1-.888-1.346l.386-1.77a1.126,1.126,0,0,1,1.1-.886h1.732a3.229,3.229,0,0,1-.426-4.409,4.857,4.857,0,0,1,6.333.018,2.79,2.79,0,0,1,.649,1.973,2.838,2.838,0,0,1-.663,1.985,2.913,2.913,0,0,1-.671.578,1.141,1.141,0,0,1,.329.28,1.119,1.119,0,0,1,.217.949s-1.756,7.748-2.3,10.127a1.181,1.181,0,0,1,.693.4,1.149,1.149,0,0,1,.269.95l-.368,1.617a1.127,1.127,0,0,1-1.1.876m-4.987-2.294a1.632,1.632,0,0,0,.388.043H445.8c-.023-.026-.045-.051-.067-.077a1.606,1.606,0,0,1-.3-1.385c.147-.629,1.507-6.62,2.133-9.378H444.24l.033.042a1.13,1.13,0,0,1,.2.925l-2.162,9.507a.748.748,0,0,0-.021.326s0,0,0,0m3.161-15.3a.6.6,0,0,0,.143.383,2.037,2.037,0,0,0,1.412.37v1.126l.024-1.126a2.115,2.115,0,0,0,1.452-.385.573.573,0,0,0,.14-.4,1.527,1.527,0,0,1,.006-.315.56.56,0,0,0-.135-.345,2.132,2.132,0,0,0-1.458-.375,2.039,2.039,0,0,0-1.447.387.6.6,0,0,0-.135.353,1.105,1.105,0,0,1,0,.331Z" transform="translate(-313.63 -41.191)" fill="#fff"/>
    <path id="Trazado_111" data-name="Trazado 111" d="M471.662,81.944l-1.042-.122.369-1.632h5.775l-.6,2.649h.051c1.186-2.049,2.681-3.023,4.708-3.023a5.74,5.74,0,0,1,.657.075l-1.184,5.2a6.866,6.866,0,0,0-1.037-.153c-2.124,0-3.424,1-4.07,3.824l-1.028,4.519h-5.195Z" transform="translate(-334.331 -56.889)" fill="#fff"/>
    <path id="Trazado_112" data-name="Trazado 112" d="M471.47,91.612h-5.195a1.126,1.126,0,0,1-1.1-1.377L467.5,80.1a1.122,1.122,0,0,1-.766-1.324l.369-1.631a1.129,1.129,0,0,1,1.1-.878h5.775a1.122,1.122,0,0,1,.88.426.71.71,0,0,1,.063.086,5.894,5.894,0,0,1,3.218-.885,3.928,3.928,0,0,1,.609.059l.176.024a1.128,1.128,0,0,1,.97,1.368l-1.184,5.2a1.136,1.136,0,0,1-1.264.865c-.125-.018-.251-.042-.378-.068a2.649,2.649,0,0,0-.492-.07c-1.455,0-2.409.483-2.973,2.948l-1.027,4.519a1.124,1.124,0,0,1-1.1.876m-3.782-2.251h2.884l.828-3.645c.734-3.205,2.376-4.7,5.168-4.7.059,0,.115,0,.171,0l.641-2.811a4.293,4.293,0,0,0-2.982,2.4,1.194,1.194,0,0,1-1.879.138,1.14,1.14,0,0,1-.245-.951l.288-1.276H469.8a1.125,1.125,0,0,1,.163.88Z" transform="translate(-331.538 -54.095)" fill="#fff"/>
    <path id="Trazado_113" data-name="Trazado 113" d="M686.2,91.122a.994.994,0,0,0,1.133,1.339l-.4,1.747h-4.451c-1.863,0-1.373-1.921-1.373-1.921a6.317,6.317,0,0,1-5.241,2.3c-2.847,0-4.3-1.751-3.45-5.5l1.409-6.192-.988-.074.388-1.7h6.2l-1.705,7.629c-.41,1.8.087,2.372,1.331,2.372,1.5,0,2.232-1.124,2.693-3.148l1.528-6.854h5.2s-1.936,8.493-2.274,10" transform="translate(-479.098 -57.817)" fill="#fff"/>
    <path id="Trazado_114" data-name="Trazado 114" d="M673.073,92.914a4.653,4.653,0,0,1-3.863-1.591c-.972-1.217-1.2-3-.684-5.28l1.129-4.961a1.151,1.151,0,0,1-.517-.387,1.131,1.131,0,0,1-.191-.921l.386-1.7a1.13,1.13,0,0,1,1.1-.878h6.2a1.126,1.126,0,0,1,1.1,1.372l-1.7,7.628a2.684,2.684,0,0,0-.1.99c.035-.007.144.011.332.011.43,0,1.076,0,1.593-2.271l1.529-6.848a1.125,1.125,0,0,1,1.1-.882h5.2a1.127,1.127,0,0,1,1.1,1.378s-1.9,8.351-2.263,9.959a1.048,1.048,0,0,1,.884.356,1.123,1.123,0,0,1,.24,1.026l-.4,1.748a1.126,1.126,0,0,1-1.1.876h-4.451a2.447,2.447,0,0,1-2.045-.9c-.011-.011-.019-.022-.026-.031a7.282,7.282,0,0,1-4.542,1.3m-1.121-13.466a1.13,1.13,0,0,1,.178.9l-1.409,6.2c-.354,1.561-.268,2.729.249,3.375a2.567,2.567,0,0,0,2.1.746,4.968,4.968,0,0,0,3.7-1.247,3.676,3.676,0,0,1-.511.033,2.608,2.608,0,0,1-2.1-.845,3.431,3.431,0,0,1-.324-2.9l1.4-6.254Zm7.467,10.81a1.048,1.048,0,0,0,.267.029H682.9a1.883,1.883,0,0,1-.244-.253,2.212,2.212,0,0,1-.356-1.95c.256-1.133,1.4-6.168,1.961-8.637h-2.88l-1.333,5.972a6.526,6.526,0,0,1-1.361,3.01.959.959,0,0,1,.169.076,1.124,1.124,0,0,1,.545,1.263,1.011,1.011,0,0,0,.013.489Zm4.985-.625,0,0,.021-.994a.315.315,0,0,0-.125-.11Z" transform="translate(-476.303 -55.022)" fill="#fff"/>
    <path id="Trazado_115" data-name="Trazado 115" d="M524.91,96.585c-.465,2.012-3.136,3.07-6.153,3.07h-6.94s.373-1.359.654-2.342c2.382,0,5.254.263,6.748-.842,1.328-.983,1.866-4.184,1.866-4.184a6.325,6.325,0,0,1-5.246,2.3c-2.848,0-4.3-1.752-3.444-5.5l1.406-6.192-.986-.074.386-1.7h6.2l-1.7,7.629c-.411,1.8.082,2.372,1.335,2.372,1.5,0,2.226-1.124,2.685-3.148l1.534-6.854h5.2s-3.077,13.456-3.537,15.467" transform="translate(-364.8 -57.817)" fill="#fff"/>
    <path id="Trazado_116" data-name="Trazado 116" d="M515.964,97.985h-6.94a1.125,1.125,0,0,1-1.086-1.424s.375-1.363.657-2.353a1.129,1.129,0,0,1,1.083-.815c.385,0,.785.006,1.189.014s.807.016,1.21.016c1.305,0,2.9-.075,3.68-.649a1.517,1.517,0,0,0,.313-.34,8.344,8.344,0,0,1-3.023.481,4.646,4.646,0,0,1-3.862-1.591c-.972-1.217-1.2-3-.679-5.282l1.126-4.961a1.114,1.114,0,0,1-.515-.384,1.129,1.129,0,0,1-.192-.921l.385-1.7a1.127,1.127,0,0,1,1.1-.878h6.2a1.128,1.128,0,0,1,1.1,1.373L516,86.2a2.669,2.669,0,0,0-.1.99c.035-.009.145.011.338.011.427,0,1.072,0,1.587-2.271l1.535-6.85a1.125,1.125,0,0,1,1.1-.881h5.2a1.128,1.128,0,0,1,1.1,1.378l-3.539,15.466c-.552,2.4-3.4,3.944-7.249,3.944m-5.46-2.251h5.46c2.678,0,4.757-.9,5.054-2.2l3.223-14.089h-2.88l-1.338,5.976a6.5,6.5,0,0,1-1.356,3.006c.044.016.087.035.129.055a1.128,1.128,0,0,1,.607,1.194c-.1.61-.7,3.709-2.307,4.906-1.585,1.173-4.017,1.118-6.267,1.074-.1,0-.2,0-.3,0-.008.027-.015.056-.023.081m1.422-16.285a1.129,1.129,0,0,1,.179.9l-1.406,6.2c-.356,1.561-.271,2.729.245,3.375a2.561,2.561,0,0,0,2.1.746,4.979,4.979,0,0,0,3.7-1.247,3.686,3.686,0,0,1-.508.033,2.615,2.615,0,0,1-2.109-.845,3.43,3.43,0,0,1-.323-2.9l1.395-6.253Z" transform="translate(-362.006 -55.022)" fill="#fff"/>
    <path id="Trazado_117" data-name="Trazado 117" d="M731.679,87.911c-.377,1.9-.068,3.431,1.6,3.431a2.87,2.87,0,0,0,2.6-2.006h4.973c-1.641,3.249-5.18,4.322-8.23,4.322-4.2,0-6.892-2.4-5.9-6.8a9.138,9.138,0,0,1,9.022-7.044c4.847,0,7.007,3.346,5.852,8.095ZM737,85.262c.409-2.022-.265-3-1.492-3-1.551,0-2.616.869-3.225,3Z" transform="translate(-517.829 -56.889)" fill="#fff"/>
    <path id="Trazado_118" data-name="Trazado 118" d="M729.824,91.986a7.433,7.433,0,0,1-6-2.425,6.494,6.494,0,0,1-1-5.743,10.248,10.248,0,0,1,10.122-7.924,7.174,7.174,0,0,1,5.906,2.488c1.351,1.719,1.721,4.207,1.04,7a1.133,1.133,0,0,1-.768.813,1.132,1.132,0,0,1-.066.852c-2.253,4.457-7.21,4.939-9.236,4.939m3.125-13.839a8,8,0,0,0-7.923,6.168,4.384,4.384,0,0,0,.562,3.841,5.277,5.277,0,0,0,4.236,1.579,8.949,8.949,0,0,0,6.018-2.069h-2.036a3.907,3.907,0,0,1-3.323,2.006,2.682,2.682,0,0,1-2.173-.952c-.69-.84-.87-2.125-.531-3.824a1.124,1.124,0,0,1,1.1-.908h9a5.416,5.416,0,0,0-.794-4.215,5.028,5.028,0,0,0-4.136-1.627m-3.081,8.1a1.729,1.729,0,0,0,.182,1.053c.026.03.1.124.433.124a1.761,1.761,0,0,0,1.51-1.177Zm4.338-2.649h-4.717a1.127,1.127,0,0,1-1.081-1.436c.724-2.529,2.173-3.812,4.307-3.812a2.62,2.62,0,0,1,2.079.923,4,4,0,0,1,.518,3.423,1.126,1.126,0,0,1-1.1.9m-3-2.251H733.2a1.121,1.121,0,0,0-.149-.646c-.02-.025-.082-.1-.336-.1a1.685,1.685,0,0,0-1.506.746" transform="translate(-515.032 -54.094)" fill="#fff"/>
    <path id="Trazado_119" data-name="Trazado 119" d="M785.941,87.911c-.379,1.9-.068,3.431,1.6,3.431a2.867,2.867,0,0,0,2.6-2.006h4.973c-1.641,3.249-5.182,4.322-8.227,4.322-4.2,0-6.9-2.4-5.9-6.8A9.133,9.133,0,0,1,790,79.816c4.848,0,7.014,3.346,5.856,8.095Zm5.324-2.648c.4-2.022-.27-3-1.492-3-1.553,0-2.62.869-3.228,3Z" transform="translate(-556.502 -56.889)" fill="#fff"/>
    <path id="Trazado_120" data-name="Trazado 120" d="M784.09,91.986a7.434,7.434,0,0,1-6-2.428,6.475,6.475,0,0,1-.992-5.743,10.241,10.241,0,0,1,10.113-7.921,7.167,7.167,0,0,1,5.911,2.492c1.352,1.72,1.72,4.2,1.039,7a1.128,1.128,0,0,1-.771.811,1.126,1.126,0,0,1-.067.852c-2.25,4.457-7.206,4.939-9.23,4.939m3.119-13.839a8,8,0,0,0-7.917,6.168,4.371,4.371,0,0,0,.555,3.836,5.283,5.283,0,0,0,4.243,1.584,8.94,8.94,0,0,0,6.014-2.069h-2.037a3.962,3.962,0,0,1-3.319,2.006,2.674,2.674,0,0,1-2.171-.949,4.514,4.514,0,0,1-.532-3.827,1.124,1.124,0,0,1,1.1-.908h8.995a5.4,5.4,0,0,0-.794-4.212,5.019,5.019,0,0,0-4.139-1.63m-3.074,8.1a1.713,1.713,0,0,0,.179,1.053c.028.03.106.124.433.124a1.755,1.755,0,0,0,1.509-1.177Zm4.337-2.649h-4.72a1.126,1.126,0,0,1-1.083-1.434c.72-2.532,2.171-3.814,4.31-3.814a2.576,2.576,0,0,1,2.069.92,4.005,4.005,0,0,1,.53,3.423,1.128,1.128,0,0,1-1.106.906m-3-2.251h1.993a1.132,1.132,0,0,0-.153-.646c-.021-.025-.081-.1-.33-.1a1.688,1.688,0,0,0-1.509.746" transform="translate(-553.709 -54.094)" fill="#fff"/>
    <path id="Trazado_121" data-name="Trazado 121" d="M836.592,81.9l-.993-.07.339-1.636h5.789l-.469,2.049a6.653,6.653,0,0,1,4.978-2.423c3.445,0,4.609,2.024,3.793,5.62,0,0-.957,4.227-1.183,5.206s.97.932.97.932l-.387,1.706h-4.488c-2.072,0-1.535-1.66-1.535-1.66l1.241-5.8c.3-1.3.206-2.444-1.266-2.444-1.6,0-2.257,1.022-2.636,2.7L839.2,93.281H834.01Z" transform="translate(-594.445 -56.89)" fill="#fff"/>
    <path id="Trazado_122" data-name="Trazado 122" d="M846.634,91.612h-4.488a2.649,2.649,0,0,1-2.3-.983,2.5,2.5,0,0,1-.327-2.074l1.235-5.761a2.254,2.254,0,0,0,.079-1.07c-.02.006-.1-.015-.246-.015-.637,0-1.156.135-1.536,1.817l-1.541,7.2a1.123,1.123,0,0,1-1.1.89h-5.195a1.127,1.127,0,0,1-1.1-1.375l2.3-10.147a1.139,1.139,0,0,1-.51-.379,1.119,1.119,0,0,1-.206-.908l.339-1.636a1.131,1.131,0,0,1,1.1-.9h5.789a1.123,1.123,0,0,1,.882.426,1.089,1.089,0,0,1,.1.148,6.805,6.805,0,0,1,3.527-.948,5.088,5.088,0,0,1,4.214,1.666c.975,1.218,1.2,3.012.677,5.331,0,0-.763,3.368-1.089,4.789a1.153,1.153,0,0,1,.643.394,1.131,1.131,0,0,1,.232.952l-.385,1.707a1.128,1.128,0,0,1-1.1.877M841.7,89.325a3.507,3.507,0,0,0,.45.036h3.3a1.765,1.765,0,0,1-.178-.191,1.825,1.825,0,0,1-.315-1.575c.227-.979,1.181-5.2,1.181-5.2.253-1.11.417-2.608-.239-3.429a3.019,3.019,0,0,0-2.454-.817,4.945,4.945,0,0,0-3.379,1.34,4.494,4.494,0,0,1,.524-.03,2.412,2.412,0,0,1,2.005.855,3.6,3.6,0,0,1,.358,2.967l-1.237,5.781a1,1,0,0,1-.03.11.461.461,0,0,0,0,.16c0-.006,0-.007.017-.007m-9.075.036H835.5l1.352-6.316a5.431,5.431,0,0,1,1.189-2.557c-.038-.017-.076-.033-.113-.054a1.125,1.125,0,0,1-.56-1.241l.153-.673h-2.759a1.135,1.135,0,0,1,.133.829Z" transform="translate(-591.648 -54.095)" fill="#fff"/>
    <path id="Trazado_123" data-name="Trazado 123" d="M895.333,112.887v-.543h.339c.183,0,.433.018.433.253s-.127.29-.346.29Zm0,.383h.225l.524.947h.57l-.578-.985a.524.524,0,0,0,.542-.587c0-.514-.338-.681-.924-.681h-.842v2.254h.483Zm2.444-.177a2.1,2.1,0,1,0-2.095,2.094,2.02,2.02,0,0,0,2.095-2.094m-.6,0a1.521,1.521,0,0,1-1.492,1.611V114.7a1.607,1.607,0,1,1,1.492-1.6" transform="translate(-636.901 -79.119)" fill="#fff"/>
    <path id="Trazado_124" data-name="Trazado 124" d="M892.887,113.517a3.217,3.217,0,1,1,3.22-3.219,3.154,3.154,0,0,1-3.22,3.219" transform="translate(-634.107 -76.324)" fill="#fff"/>
    <path id="Trazado_125" data-name="Trazado 125" d="M312.987,58.8h9.508c6.176,0,10.426,1.711,9.767,7.663s-3.477,11.954-11.391,11.954H309.749l.388-1.767.96-.166,3.748-15.749-2.247-.2Zm4.989,17.486a10.35,10.35,0,0,0,1.948.14c4.769,0,6-11.127,5.839-12.863-.219-2.383-1.353-2.776-2.544-2.776H321.65Z" transform="translate(-220.775 -41.907)" fill="#ef3e42"/>
    <path id="Trazado_126" data-name="Trazado 126" d="M613.307,77.164a4.345,4.345,0,0,1-1.7.479c-1.58,0-1.58-.57-2.314-1.609,3.934-2.186,6.363-6.634,6.363-11.755,0-4.641-3.609-7.189-9.636-7.189-6.712,0-12.265,6.177-12.442,12.309-.145,5.2,2.411,8.229,9.722,8.149a11.666,11.666,0,0,0,1.664-.112c.9,2.186,1.611,3.121,4.573,3.121a6.82,6.82,0,0,0,3.274-.822l.519-2.259Zm-7.318-4.3a6.44,6.44,0,0,0-3.263-1.017l-.453,1.958a2.16,2.16,0,0,1,1.8,1.416,1.862,1.862,0,0,1-1.065.333,2.406,2.406,0,0,1-2.722-2.326c-.184-2.128,1.8-14.151,5.7-14.151A2.392,2.392,0,0,1,608.7,61.4a30.707,30.707,0,0,1-2.71,11.463" transform="translate(-423.075 -40.691)" fill="#ef3e42"/>
    <path id="Trazado_127" data-name="Trazado 127" d="M395.432,93.28a1.133,1.133,0,0,1-1.155-1.4,7.994,7.994,0,0,1-5.325,1.775c-2.472,0-4.391-1.225-3.776-3.947,1.355-5.947,10.14-3.235,10.614-5.7.327-1.676-.08-1.989-1.26-1.989-1.111,0-1.884.8-2.3,2.192h-5c.631-2.772,2.97-4.4,8.146-4.4,6.194,0,6.045,2.3,5.337,5.42l-1.011,4.6c-.171.75-.3,1.531,1.245,1.67l-.437,1.773Zm-.41-6.142c-1.9.991-4.053.51-4.455,2.561-.155.782.364,1.324,1.388,1.324,1.82,0,2.758-1.718,3.066-3.884" transform="translate(-274.454 -56.889)" fill="#ef3e42"/>
    <path id="Trazado_128" data-name="Trazado 128" d="M449.822,65.789c3.017-.012,2.705-2.053,2.705-2.053s.326-2.024-2.705-2.024c-2.986,0-2.7,2.024-2.7,2.024s-.323,2.065,2.7,2.053m-4.356,14.588c-1.983,0-1.469-1.742-1.469-1.742l2.163-9.506-1.178-.072.386-1.771h6.4s-2.253,9.942-2.444,10.751,1.106.723,1.106.723l-.369,1.616Z" transform="translate(-316.418 -43.986)" fill="#ef3e42"/>
    <path id="Trazado_129" data-name="Trazado 129" d="M471.662,81.944l-1.042-.122.369-1.632h5.775l-.6,2.649h.051c1.186-2.049,2.681-3.023,4.708-3.023a5.74,5.74,0,0,1,.657.075l-1.184,5.2a6.866,6.866,0,0,0-1.037-.153c-2.124,0-3.424,1-4.07,3.824l-1.028,4.519h-5.195Z" transform="translate(-334.331 -56.889)" fill="#ef3e42"/>
    <path id="Trazado_130" data-name="Trazado 130" d="M686.2,91.122a.994.994,0,0,0,1.133,1.339l-.4,1.747h-4.451c-1.863,0-1.373-1.921-1.373-1.921a6.317,6.317,0,0,1-5.241,2.3c-2.847,0-4.3-1.751-3.45-5.5l1.409-6.192-.988-.074.388-1.7h6.2l-1.705,7.629c-.41,1.8.087,2.372,1.331,2.372,1.5,0,2.232-1.124,2.693-3.148l1.528-6.854h5.2s-1.936,8.493-2.274,10" transform="translate(-479.098 -57.817)" fill="#ef3e42"/>
    <path id="Trazado_131" data-name="Trazado 131" d="M524.91,96.585c-.465,2.012-3.136,3.07-6.153,3.07h-6.94s.373-1.359.654-2.342c2.382,0,5.254.263,6.748-.842,1.328-.983,1.866-4.184,1.866-4.184a6.325,6.325,0,0,1-5.246,2.3c-2.848,0-4.3-1.752-3.444-5.5l1.406-6.192-.986-.074.386-1.7h6.2l-1.7,7.629c-.411,1.8.082,2.372,1.335,2.372,1.5,0,2.226-1.124,2.685-3.148l1.534-6.854h5.2s-3.077,13.456-3.537,15.467" transform="translate(-364.8 -57.817)" fill="#ef3e42"/>
    <path id="Trazado_132" data-name="Trazado 132" d="M731.679,87.911c-.377,1.9-.068,3.431,1.6,3.431a2.87,2.87,0,0,0,2.6-2.006h4.973c-1.641,3.249-5.18,4.322-8.23,4.322-4.2,0-6.892-2.4-5.9-6.8a9.138,9.138,0,0,1,9.022-7.044c4.847,0,7.007,3.346,5.852,8.095ZM737,85.262c.409-2.022-.265-3-1.492-3-1.551,0-2.616.869-3.225,3Z" transform="translate(-517.829 -56.889)" fill="#ef3e42"/>
    <path id="Trazado_133" data-name="Trazado 133" d="M785.941,87.911c-.379,1.9-.068,3.431,1.6,3.431a2.867,2.867,0,0,0,2.6-2.006h4.973c-1.641,3.249-5.182,4.322-8.227,4.322-4.2,0-6.9-2.4-5.9-6.8A9.133,9.133,0,0,1,790,79.816c4.848,0,7.014,3.346,5.856,8.095Zm5.324-2.648c.4-2.022-.27-3-1.492-3-1.553,0-2.62.869-3.228,3Z" transform="translate(-556.502 -56.889)" fill="#ef3e42"/>
    <path id="Trazado_134" data-name="Trazado 134" d="M836.592,81.9l-.993-.07.339-1.636h5.789l-.469,2.049a6.653,6.653,0,0,1,4.978-2.423c3.445,0,4.609,2.024,3.793,5.62,0,0-.957,4.227-1.183,5.206s.97.932.97.932l-.387,1.706h-4.488c-2.072,0-1.535-1.66-1.535-1.66l1.241-5.8c.3-1.3.206-2.444-1.266-2.444-1.6,0-2.257,1.022-2.636,2.7L839.2,93.281H834.01Z" transform="translate(-594.445 -56.89)" fill="#ef3e42"/>
    <path id="Trazado_135" data-name="Trazado 135" d="M895.333,112.887v-.543h.339c.183,0,.433.018.433.253s-.127.29-.346.29Zm0,.383h.225l.524.947h.57l-.578-.985a.524.524,0,0,0,.542-.587c0-.514-.338-.681-.924-.681h-.842v2.254h.483Zm2.444-.177a2.1,2.1,0,1,0-2.095,2.094,2.02,2.02,0,0,0,2.095-2.094m-.6,0a1.521,1.521,0,0,1-1.492,1.611V114.7a1.607,1.607,0,1,1,1.492-1.6" transform="translate(-636.901 -79.119)" fill="#ef3e42"/>
    <path id="Trazado_136" data-name="Trazado 136" d="M49.864,50.2A22.532,22.532,0,0,0,53.6,48.527c.846-.448,1.692-.942,2.514-1.471,6.638-4.282,11.675-9.746,15.353-13.735,1.067-1.157,1.987-2.155,2.823-3a44.819,44.819,0,0,1,3.442-3.017l1.761-1.382-1.761-1.382A45.04,45.04,0,0,1,74.29,21.53c-.437-.439-.9-.922-1.388-1.448l.142-.623L75.687,8.188l-1.268-.611A61.833,61.833,0,0,0,49.188,1.43l-.026,0A31.324,31.324,0,0,0,39.747,0,29.213,29.213,0,0,0,25.894,3.332c-.849.448-1.694.94-2.513,1.468C16.739,9.083,11.7,14.549,8.022,18.539,6.958,19.693,6.04,20.69,5.2,21.53a45.176,45.176,0,0,1-3.441,3.015L0,25.927l1.762,1.382A44.824,44.824,0,0,1,5.2,30.325c.436.437.894.917,1.382,1.439l-.121.557-.587,2.5L3.82,43.595l1.27.61A62.829,62.829,0,0,0,28.574,50.31l1.649.089A31.775,31.775,0,0,0,49.7,50.255Z" transform="translate(0 0)" fill="#fff"/>
    <path id="Trazado_137" data-name="Trazado 137" d="M79.525,26.941c-3.874-3.9-9.643-11.215-18.009-16.607Q60.33,9.57,59.078,8.91A27.8,27.8,0,0,0,45.993,5.782,27.8,27.8,0,0,0,32.905,8.91c-.833.44-1.649.915-2.438,1.424-8.361,5.392-14.135,12.708-18,16.607a46.678,46.678,0,0,1-3.633,3.181,46.316,46.316,0,0,1,3.63,3.183c3.873,3.9,9.643,11.213,18.007,16.6.789.51,1.605.985,2.438,1.426a27.753,27.753,0,0,0,13.086,3.126,27.776,27.776,0,0,0,13.087-3.126q1.253-.662,2.437-1.426c8.362-5.392,14.135-12.708,18.007-16.6a46.687,46.687,0,0,1,3.633-3.183,47.076,47.076,0,0,1-3.63-3.181" transform="translate(-6.293 -4.12)" fill="#ef3e42"/>
    <path id="Trazado_138" data-name="Trazado 138" d="M55.948,47.777H66.869c7.083,0,11.967,1.963,11.208,8.8S74.088,70.3,65,70.3H52.236l.443-2.028,1.1-.192L58.079,50,55.5,49.772Zm5.73,20.079a11.976,11.976,0,0,0,2.236.161c5.474,0,6.882-12.775,6.7-14.77-.25-2.735-1.551-3.185-2.92-3.185h-1.8Z" transform="translate(-37.231 -34.053)" fill="#fff"/>
    <path id="Trazado_139" data-name="Trazado 139" d="M160.6,68.865a5.036,5.036,0,0,1-1.95.547c-1.815,0-1.815-.656-2.657-1.846,4.517-2.51,7.308-7.619,7.308-13.5,0-5.329-4.149-8.257-11.063-8.257-7.705,0-14.088,7.095-14.288,14.134-.17,5.967,2.766,9.449,11.163,9.356a13.56,13.56,0,0,0,1.912-.13c1.034,2.51,1.846,3.585,5.249,3.585a7.844,7.844,0,0,0,3.757-.944l.6-2.595Zm-8.4-4.936a7.439,7.439,0,0,0-3.749-1.17l-.52,2.251A2.481,2.481,0,0,1,150,66.633a2.138,2.138,0,0,1-1.224.386c-2.109,0-2.989-1.159-3.121-2.67-.213-2.445,2.065-16.25,6.545-16.25,2.109,0,2.984,1.159,3.115,2.671A35.257,35.257,0,0,1,152.2,63.93" transform="translate(-98.323 -32.654)" fill="#fff"/>
    <path id="Trazado_140" data-name="Trazado 140" d="M140.606,23.9c-8.338-5.736-21.479-9.975-32.157-9.736a45.178,45.178,0,0,0-12.52,2.011,40.894,40.894,0,0,1,20.689-5.73c8.25-.184,17.92,2.246,25.735,6Z" transform="translate(-68.374 -7.439)" fill="#faab54"/>
    <path id="Trazado_141" data-name="Trazado 141" d="M20.609,123.738c8.338,5.735,21.478,9.975,32.157,9.735a45.174,45.174,0,0,0,12.52-2.01,40.914,40.914,0,0,1-20.689,5.73c-8.249.183-17.92-2.247-25.735-6.007Z" transform="translate(-13.444 -88.195)" fill="#007ac2"/>
    <path id="Trazado_142" data-name="Trazado 142" d="M218.039,113.4a1.566,1.566,0,1,1,1.569,1.608,1.573,1.573,0,0,1-1.569-1.608m1.569,1.343a1.342,1.342,0,1,0-1.256-1.343,1.276,1.276,0,0,0,1.256,1.343m-.326-.41h-.266v-1.856h.676c.422,0,.628.164.628.526a.476.476,0,0,1-.46.511l.5.819h-.3l-.471-.807h-.31Zm.317-1.054c.228,0,.434-.016.434-.3,0-.232-.2-.272-.392-.272h-.367v.573Z" transform="translate(-155.408 -79.683)" fill="#fff"/>
  </g>
</svg>
